<mxfile host="Electron" agent="Mozilla/5.0 (Windows NT 10.0; Win64; x64) AppleWebKit/537.36 (KHTML, like Gecko) draw.io/24.7.17 Chrome/128.0.6613.36 Electron/32.0.1 Safari/537.36" version="24.7.17">
  <diagram name="Page-1" id="3XOxG6FMkao1AMan2YhP">
    <mxGraphModel dx="2762" dy="655" grid="1" gridSize="10" guides="1" tooltips="1" connect="1" arrows="1" fold="1" page="1" pageScale="1" pageWidth="850" pageHeight="1100" math="0" shadow="0">
      <root>
        <mxCell id="0" />
        <mxCell id="1" parent="0" />
        <mxCell id="oJl91GnHJdicE9mI5OMN-8" value="Lakosság" style="ellipse;whiteSpace=wrap;html=1;" parent="1" vertex="1">
          <mxGeometry x="-1470" y="630" width="80" height="60" as="geometry" />
        </mxCell>
        <mxCell id="oJl91GnHJdicE9mI5OMN-9" value="Terület" style="ellipse;whiteSpace=wrap;html=1;" parent="1" vertex="1">
          <mxGeometry x="-1380" y="630" width="80" height="60" as="geometry" />
        </mxCell>
        <mxCell id="oJl91GnHJdicE9mI5OMN-10" value="Név" style="ellipse;whiteSpace=wrap;html=1;" parent="1" vertex="1">
          <mxGeometry x="-1290" y="630" width="80" height="60" as="geometry" />
        </mxCell>
        <mxCell id="oJl91GnHJdicE9mI5OMN-11" value="" style="endArrow=none;html=1;rounded=0;exitX=0.5;exitY=0;exitDx=0;exitDy=0;entryX=0;entryY=0.5;entryDx=0;entryDy=0;" parent="1" source="3jUiUVgvmcOmY0SQq6iD-46" target="3jUiUVgvmcOmY0SQq6iD-12" edge="1">
          <mxGeometry width="50" height="50" relative="1" as="geometry">
            <mxPoint x="-1460" y="480" as="sourcePoint" />
            <mxPoint x="-890" y="880" as="targetPoint" />
          </mxGeometry>
        </mxCell>
        <mxCell id="oJl91GnHJdicE9mI5OMN-12" value="" style="endArrow=none;html=1;rounded=0;exitX=0.5;exitY=0;exitDx=0;exitDy=0;entryX=0.5;entryY=1;entryDx=0;entryDy=0;endFill=0;startArrow=none;startFill=0;" parent="1" source="oJl91GnHJdicE9mI5OMN-10" target="3jUiUVgvmcOmY0SQq6iD-12" edge="1">
          <mxGeometry width="50" height="50" relative="1" as="geometry">
            <mxPoint x="-1030" y="520" as="sourcePoint" />
            <mxPoint x="-965" y="520" as="targetPoint" />
          </mxGeometry>
        </mxCell>
        <mxCell id="oJl91GnHJdicE9mI5OMN-13" value="" style="endArrow=none;html=1;rounded=0;exitX=0.5;exitY=1;exitDx=0;exitDy=0;entryX=0.5;entryY=0;entryDx=0;entryDy=0;" parent="1" source="3jUiUVgvmcOmY0SQq6iD-12" target="oJl91GnHJdicE9mI5OMN-8" edge="1">
          <mxGeometry width="50" height="50" relative="1" as="geometry">
            <mxPoint x="-1030" y="590" as="sourcePoint" />
            <mxPoint x="-965" y="520" as="targetPoint" />
          </mxGeometry>
        </mxCell>
        <mxCell id="oJl91GnHJdicE9mI5OMN-14" value="" style="endArrow=none;html=1;rounded=0;entryX=0.5;entryY=0;entryDx=0;entryDy=0;exitX=0.5;exitY=1;exitDx=0;exitDy=0;" parent="1" source="3jUiUVgvmcOmY0SQq6iD-12" target="oJl91GnHJdicE9mI5OMN-9" edge="1">
          <mxGeometry width="50" height="50" relative="1" as="geometry">
            <mxPoint x="-845" y="520" as="sourcePoint" />
            <mxPoint x="-780" y="520" as="targetPoint" />
          </mxGeometry>
        </mxCell>
        <mxCell id="oJl91GnHJdicE9mI5OMN-92" style="rounded=0;orthogonalLoop=1;jettySize=auto;html=1;exitX=0.5;exitY=1;exitDx=0;exitDy=0;entryX=0.5;entryY=0;entryDx=0;entryDy=0;endArrow=none;endFill=0;" parent="1" source="3jUiUVgvmcOmY0SQq6iD-15" target="oJl91GnHJdicE9mI5OMN-73" edge="1">
          <mxGeometry relative="1" as="geometry">
            <mxPoint x="949.9999999999999" y="540" as="sourcePoint" />
          </mxGeometry>
        </mxCell>
        <mxCell id="oJl91GnHJdicE9mI5OMN-94" style="rounded=0;orthogonalLoop=1;jettySize=auto;html=1;exitX=1;exitY=0.5;exitDx=0;exitDy=0;entryX=0.5;entryY=0;entryDx=0;entryDy=0;endArrow=none;endFill=0;" parent="1" source="3jUiUVgvmcOmY0SQq6iD-15" target="3jUiUVgvmcOmY0SQq6iD-56" edge="1">
          <mxGeometry relative="1" as="geometry">
            <mxPoint x="949.9999999999999" y="540" as="sourcePoint" />
            <mxPoint x="1060" y="450" as="targetPoint" />
          </mxGeometry>
        </mxCell>
        <mxCell id="oJl91GnHJdicE9mI5OMN-95" style="rounded=0;orthogonalLoop=1;jettySize=auto;html=1;exitX=0.5;exitY=1;exitDx=0;exitDy=0;entryX=0.5;entryY=0;entryDx=0;entryDy=0;endArrow=none;endFill=0;startArrow=none;startFill=0;" parent="1" source="3jUiUVgvmcOmY0SQq6iD-15" target="oJl91GnHJdicE9mI5OMN-71" edge="1">
          <mxGeometry relative="1" as="geometry">
            <mxPoint x="949.9999999999999" y="540" as="sourcePoint" />
          </mxGeometry>
        </mxCell>
        <mxCell id="oJl91GnHJdicE9mI5OMN-35" value="Név" style="ellipse;whiteSpace=wrap;html=1;" parent="1" vertex="1">
          <mxGeometry x="-870" y="630" width="80" height="60" as="geometry" />
        </mxCell>
        <mxCell id="oJl91GnHJdicE9mI5OMN-52" style="rounded=0;orthogonalLoop=1;jettySize=auto;html=1;entryX=1;entryY=0.5;entryDx=0;entryDy=0;endArrow=none;endFill=0;exitX=0.5;exitY=0;exitDx=0;exitDy=0;" parent="1" source="3jUiUVgvmcOmY0SQq6iD-53" target="3jUiUVgvmcOmY0SQq6iD-13" edge="1">
          <mxGeometry relative="1" as="geometry">
            <mxPoint x="30" y="540" as="targetPoint" />
            <mxPoint x="-130" y="620" as="sourcePoint" />
          </mxGeometry>
        </mxCell>
        <mxCell id="oJl91GnHJdicE9mI5OMN-39" value="Cím" style="ellipse;whiteSpace=wrap;html=1;" parent="1" vertex="1">
          <mxGeometry x="-80" y="630" width="80" height="60" as="geometry" />
        </mxCell>
        <mxCell id="oJl91GnHJdicE9mI5OMN-40" value="Utca" style="ellipse;whiteSpace=wrap;html=1;" parent="1" vertex="1">
          <mxGeometry x="-170" y="770" width="80" height="60" as="geometry" />
        </mxCell>
        <mxCell id="oJl91GnHJdicE9mI5OMN-41" value="Házszám" style="ellipse;whiteSpace=wrap;html=1;" parent="1" vertex="1">
          <mxGeometry x="-80" y="770" width="80" height="60" as="geometry" />
        </mxCell>
        <mxCell id="oJl91GnHJdicE9mI5OMN-42" value="Férőhely" style="ellipse;whiteSpace=wrap;html=1;" parent="1" vertex="1">
          <mxGeometry x="100" y="630" width="80" height="60" as="geometry" />
        </mxCell>
        <mxCell id="oJl91GnHJdicE9mI5OMN-43" value="Név" style="ellipse;whiteSpace=wrap;html=1;" parent="1" vertex="1">
          <mxGeometry x="10" y="630" width="80" height="60" as="geometry" />
        </mxCell>
        <mxCell id="oJl91GnHJdicE9mI5OMN-45" value="Nem" style="ellipse;whiteSpace=wrap;html=1;" parent="1" vertex="1">
          <mxGeometry x="-780" y="630" width="80" height="60" as="geometry" />
        </mxCell>
        <mxCell id="oJl91GnHJdicE9mI5OMN-46" value="Szül. idő" style="ellipse;whiteSpace=wrap;html=1;" parent="1" vertex="1">
          <mxGeometry x="-510" y="630" width="80" height="60" as="geometry" />
        </mxCell>
        <mxCell id="oJl91GnHJdicE9mI5OMN-49" value="" style="endArrow=none;html=1;rounded=0;exitX=0.5;exitY=0;exitDx=0;exitDy=0;entryX=0.5;entryY=1;entryDx=0;entryDy=0;" parent="1" source="oJl91GnHJdicE9mI5OMN-61" target="3jUiUVgvmcOmY0SQq6iD-11" edge="1">
          <mxGeometry width="50" height="50" relative="1" as="geometry">
            <mxPoint x="200" y="760" as="sourcePoint" />
            <mxPoint x="30" y="535" as="targetPoint" />
          </mxGeometry>
        </mxCell>
        <mxCell id="oJl91GnHJdicE9mI5OMN-53" style="rounded=0;orthogonalLoop=1;jettySize=auto;html=1;entryX=0.5;entryY=1;entryDx=0;entryDy=0;endArrow=none;endFill=0;exitX=0.5;exitY=0;exitDx=0;exitDy=0;startArrow=none;startFill=0;" parent="1" source="oJl91GnHJdicE9mI5OMN-43" target="3jUiUVgvmcOmY0SQq6iD-13" edge="1">
          <mxGeometry relative="1" as="geometry">
            <mxPoint x="-143" y="421" as="sourcePoint" />
            <mxPoint x="30" y="540" as="targetPoint" />
          </mxGeometry>
        </mxCell>
        <mxCell id="oJl91GnHJdicE9mI5OMN-54" style="rounded=0;orthogonalLoop=1;jettySize=auto;html=1;entryX=0.5;entryY=0;entryDx=0;entryDy=0;endArrow=none;endFill=0;exitX=0.5;exitY=1;exitDx=0;exitDy=0;" parent="1" source="3jUiUVgvmcOmY0SQq6iD-13" target="oJl91GnHJdicE9mI5OMN-39" edge="1">
          <mxGeometry relative="1" as="geometry">
            <mxPoint x="30" y="540" as="sourcePoint" />
            <mxPoint x="-5" y="470" as="targetPoint" />
          </mxGeometry>
        </mxCell>
        <mxCell id="oJl91GnHJdicE9mI5OMN-55" style="rounded=0;orthogonalLoop=1;jettySize=auto;html=1;entryX=0.5;entryY=1;entryDx=0;entryDy=0;endArrow=none;endFill=0;exitX=0.5;exitY=0;exitDx=0;exitDy=0;" parent="1" source="oJl91GnHJdicE9mI5OMN-42" target="3jUiUVgvmcOmY0SQq6iD-13" edge="1">
          <mxGeometry relative="1" as="geometry">
            <mxPoint x="-123.00000000000001" y="441" as="sourcePoint" />
            <mxPoint x="30" y="540" as="targetPoint" />
          </mxGeometry>
        </mxCell>
        <mxCell id="t7DiXKhFXk8-TvQDCCYp-29" style="rounded=0;orthogonalLoop=1;jettySize=auto;html=1;exitX=0.5;exitY=0;exitDx=0;exitDy=0;entryX=0;entryY=0.5;entryDx=0;entryDy=0;endArrow=none;endFill=0;" parent="1" source="3jUiUVgvmcOmY0SQq6iD-49" target="oJl91GnHJdicE9mI5OMN-39" edge="1">
          <mxGeometry relative="1" as="geometry" />
        </mxCell>
        <mxCell id="oJl91GnHJdicE9mI5OMN-61" value="Lakcím" style="ellipse;whiteSpace=wrap;html=1;" parent="1" vertex="1">
          <mxGeometry x="-960" y="630" width="80" height="60" as="geometry" />
        </mxCell>
        <mxCell id="oJl91GnHJdicE9mI5OMN-62" value="Utca" style="ellipse;whiteSpace=wrap;html=1;" parent="1" vertex="1">
          <mxGeometry x="-1050" y="770" width="80" height="60" as="geometry" />
        </mxCell>
        <mxCell id="oJl91GnHJdicE9mI5OMN-63" value="Házszám" style="ellipse;whiteSpace=wrap;html=1;" parent="1" vertex="1">
          <mxGeometry x="-960" y="770" width="80" height="60" as="geometry" />
        </mxCell>
        <mxCell id="oJl91GnHJdicE9mI5OMN-64" style="rounded=0;orthogonalLoop=1;jettySize=auto;html=1;entryX=0.5;entryY=0;entryDx=0;entryDy=0;endArrow=none;endFill=0;exitX=0.5;exitY=1;exitDx=0;exitDy=0;" parent="1" source="oJl91GnHJdicE9mI5OMN-61" target="oJl91GnHJdicE9mI5OMN-62" edge="1">
          <mxGeometry relative="1" as="geometry">
            <mxPoint x="-1180.5" y="1071" as="sourcePoint" />
            <mxPoint x="-1052.5" y="1110" as="targetPoint" />
          </mxGeometry>
        </mxCell>
        <mxCell id="oJl91GnHJdicE9mI5OMN-65" style="rounded=0;orthogonalLoop=1;jettySize=auto;html=1;entryX=0.5;entryY=0;entryDx=0;entryDy=0;endArrow=none;endFill=0;exitX=0.5;exitY=1;exitDx=0;exitDy=0;" parent="1" source="oJl91GnHJdicE9mI5OMN-61" target="oJl91GnHJdicE9mI5OMN-63" edge="1">
          <mxGeometry relative="1" as="geometry">
            <mxPoint x="-1170.5" y="1081" as="sourcePoint" />
            <mxPoint x="-1042.5" y="1120" as="targetPoint" />
          </mxGeometry>
        </mxCell>
        <mxCell id="oJl91GnHJdicE9mI5OMN-67" style="rounded=0;orthogonalLoop=1;jettySize=auto;html=1;entryX=0;entryY=0.5;entryDx=0;entryDy=0;endArrow=none;endFill=0;exitX=0.5;exitY=0;exitDx=0;exitDy=0;" parent="1" source="3jUiUVgvmcOmY0SQq6iD-48" target="oJl91GnHJdicE9mI5OMN-61" edge="1">
          <mxGeometry relative="1" as="geometry">
            <mxPoint x="-550" y="850" as="sourcePoint" />
            <mxPoint x="-1082.5" y="1080" as="targetPoint" />
          </mxGeometry>
        </mxCell>
        <mxCell id="3jUiUVgvmcOmY0SQq6iD-79" value="" style="rounded=0;orthogonalLoop=1;jettySize=auto;html=1;endArrow=none;endFill=0;exitX=0.5;exitY=1;exitDx=0;exitDy=0;" parent="1" source="oJl91GnHJdicE9mI5OMN-68" target="3jUiUVgvmcOmY0SQq6iD-77" edge="1">
          <mxGeometry relative="1" as="geometry" />
        </mxCell>
        <mxCell id="oJl91GnHJdicE9mI5OMN-68" value="Édesanyja leánykori &lt;br&gt;neve" style="ellipse;whiteSpace=wrap;html=1;" parent="1" vertex="1">
          <mxGeometry x="-420" y="630" width="80" height="60" as="geometry" />
        </mxCell>
        <mxCell id="oJl91GnHJdicE9mI5OMN-71" value="Név" style="ellipse;whiteSpace=wrap;html=1;" parent="1" vertex="1">
          <mxGeometry x="969.9999999999999" y="630" width="80" height="60" as="geometry" />
        </mxCell>
        <mxCell id="oJl91GnHJdicE9mI5OMN-93" style="rounded=0;orthogonalLoop=1;jettySize=auto;html=1;exitX=0.5;exitY=0;exitDx=0;exitDy=0;entryX=0.5;entryY=1;entryDx=0;entryDy=0;endArrow=none;endFill=0;" parent="1" source="oJl91GnHJdicE9mI5OMN-72" target="3jUiUVgvmcOmY0SQq6iD-15" edge="1">
          <mxGeometry relative="1" as="geometry">
            <mxPoint x="949.9999999999999" y="540" as="targetPoint" />
          </mxGeometry>
        </mxCell>
        <mxCell id="oJl91GnHJdicE9mI5OMN-72" value="Faj" style="ellipse;whiteSpace=wrap;html=1;" parent="1" vertex="1">
          <mxGeometry x="790" y="630" width="80" height="60" as="geometry" />
        </mxCell>
        <mxCell id="oJl91GnHJdicE9mI5OMN-73" value="Életkor" style="ellipse;whiteSpace=wrap;html=1;" parent="1" vertex="1">
          <mxGeometry x="879.9999999999999" y="630" width="80" height="60" as="geometry" />
        </mxCell>
        <mxCell id="oJl91GnHJdicE9mI5OMN-96" style="rounded=0;orthogonalLoop=1;jettySize=auto;html=1;exitX=1;exitY=0.5;exitDx=0;exitDy=0;entryX=0.5;entryY=0;entryDx=0;entryDy=0;endArrow=none;endFill=0;startArrow=none;startFill=0;" parent="1" source="3jUiUVgvmcOmY0SQq6iD-16" target="3jUiUVgvmcOmY0SQq6iD-54" edge="1">
          <mxGeometry relative="1" as="geometry">
            <mxPoint x="478.75" y="520" as="sourcePoint" />
          </mxGeometry>
        </mxCell>
        <mxCell id="oJl91GnHJdicE9mI5OMN-98" style="rounded=0;orthogonalLoop=1;jettySize=auto;html=1;exitX=0.5;exitY=0;exitDx=0;exitDy=0;entryX=0.5;entryY=1;entryDx=0;entryDy=0;endArrow=none;endFill=0;startArrow=none;startFill=0;" parent="1" source="oJl91GnHJdicE9mI5OMN-79" target="3jUiUVgvmcOmY0SQq6iD-16" edge="1">
          <mxGeometry relative="1" as="geometry">
            <mxPoint x="478.75" y="520" as="targetPoint" />
          </mxGeometry>
        </mxCell>
        <mxCell id="oJl91GnHJdicE9mI5OMN-79" value="Gyógymód" style="ellipse;whiteSpace=wrap;html=1;" parent="1" vertex="1">
          <mxGeometry x="440" y="630" width="80" height="60" as="geometry" />
        </mxCell>
        <mxCell id="oJl91GnHJdicE9mI5OMN-97" style="rounded=0;orthogonalLoop=1;jettySize=auto;html=1;exitX=0.5;exitY=0;exitDx=0;exitDy=0;endArrow=none;endFill=0;startArrow=none;startFill=0;entryX=0.5;entryY=1;entryDx=0;entryDy=0;" parent="1" source="oJl91GnHJdicE9mI5OMN-80" target="3jUiUVgvmcOmY0SQq6iD-16" edge="1">
          <mxGeometry relative="1" as="geometry">
            <mxPoint x="480" y="510" as="targetPoint" />
          </mxGeometry>
        </mxCell>
        <mxCell id="oJl91GnHJdicE9mI5OMN-80" value="Név" style="ellipse;whiteSpace=wrap;html=1;" parent="1" vertex="1">
          <mxGeometry x="350" y="630" width="80" height="60" as="geometry" />
        </mxCell>
        <mxCell id="oJl91GnHJdicE9mI5OMN-99" style="rounded=0;orthogonalLoop=1;jettySize=auto;html=1;exitX=0.5;exitY=0;exitDx=0;exitDy=0;entryX=0.5;entryY=1;entryDx=0;entryDy=0;endArrow=none;endFill=0;startArrow=none;startFill=0;" parent="1" source="oJl91GnHJdicE9mI5OMN-81" target="3jUiUVgvmcOmY0SQq6iD-16" edge="1">
          <mxGeometry relative="1" as="geometry">
            <mxPoint x="478.75" y="520" as="targetPoint" />
          </mxGeometry>
        </mxCell>
        <mxCell id="oJl91GnHJdicE9mI5OMN-81" value="Gyógyulási idő" style="ellipse;whiteSpace=wrap;html=1;" parent="1" vertex="1">
          <mxGeometry x="530" y="630" width="80" height="60" as="geometry" />
        </mxCell>
        <mxCell id="oJl91GnHJdicE9mI5OMN-100" style="rounded=0;orthogonalLoop=1;jettySize=auto;html=1;exitX=0.5;exitY=0;exitDx=0;exitDy=0;entryX=0.5;entryY=1;entryDx=0;entryDy=0;endArrow=none;endFill=0;startArrow=none;startFill=0;" parent="1" source="6" target="3jUiUVgvmcOmY0SQq6iD-16" edge="1">
          <mxGeometry relative="1" as="geometry">
            <mxPoint x="478.75" y="520" as="targetPoint" />
            <mxPoint x="635" y="580" as="sourcePoint" />
          </mxGeometry>
        </mxCell>
        <mxCell id="oJl91GnHJdicE9mI5OMN-101" style="rounded=0;orthogonalLoop=1;jettySize=auto;html=1;exitX=0.5;exitY=0;exitDx=0;exitDy=0;entryX=1;entryY=0.5;entryDx=0;entryDy=0;endArrow=none;endFill=0;" parent="1" source="3jUiUVgvmcOmY0SQq6iD-52" target="3jUiUVgvmcOmY0SQq6iD-14" edge="1">
          <mxGeometry relative="1" as="geometry">
            <mxPoint x="1227.04" y="574.98" as="sourcePoint" />
            <mxPoint x="1310" y="700" as="targetPoint" />
          </mxGeometry>
        </mxCell>
        <mxCell id="oJl91GnHJdicE9mI5OMN-102" style="rounded=0;orthogonalLoop=1;jettySize=auto;html=1;exitX=0.5;exitY=0;exitDx=0;exitDy=0;entryX=0.5;entryY=1;entryDx=0;entryDy=0;endArrow=none;endFill=0;startArrow=none;startFill=0;" parent="1" source="oJl91GnHJdicE9mI5OMN-86" target="3jUiUVgvmcOmY0SQq6iD-14" edge="1">
          <mxGeometry relative="1" as="geometry">
            <mxPoint x="1310" y="700" as="targetPoint" />
          </mxGeometry>
        </mxCell>
        <mxCell id="oJl91GnHJdicE9mI5OMN-86" value="Név" style="ellipse;whiteSpace=wrap;html=1;" parent="1" vertex="1">
          <mxGeometry x="1410" y="630" width="80" height="60" as="geometry" />
        </mxCell>
        <mxCell id="oJl91GnHJdicE9mI5OMN-103" style="rounded=0;orthogonalLoop=1;jettySize=auto;html=1;exitX=0.5;exitY=0;exitDx=0;exitDy=0;entryX=0.5;entryY=1;entryDx=0;entryDy=0;endArrow=none;endFill=0;" parent="1" source="oJl91GnHJdicE9mI5OMN-87" target="3jUiUVgvmcOmY0SQq6iD-14" edge="1">
          <mxGeometry relative="1" as="geometry">
            <mxPoint x="1310" y="700" as="targetPoint" />
          </mxGeometry>
        </mxCell>
        <mxCell id="oJl91GnHJdicE9mI5OMN-87" value="Szül. idő" style="ellipse;whiteSpace=wrap;html=1;" parent="1" vertex="1">
          <mxGeometry x="1500" y="630" width="80" height="60" as="geometry" />
        </mxCell>
        <mxCell id="36u0671AOfZQsiYe3x8z-5" style="rounded=0;orthogonalLoop=1;jettySize=auto;html=1;exitX=0.5;exitY=0;exitDx=0;exitDy=0;entryX=0.5;entryY=1;entryDx=0;entryDy=0;endArrow=none;endFill=0;" parent="1" source="2" target="3jUiUVgvmcOmY0SQq6iD-13" edge="1">
          <mxGeometry relative="1" as="geometry">
            <mxPoint x="196.25" y="540" as="sourcePoint" />
            <mxPoint x="30" y="540" as="targetPoint" />
          </mxGeometry>
        </mxCell>
        <mxCell id="36u0671AOfZQsiYe3x8z-14" style="rounded=0;orthogonalLoop=1;jettySize=auto;html=1;exitX=0.5;exitY=0;exitDx=0;exitDy=0;entryX=0.5;entryY=1;entryDx=0;entryDy=0;endArrow=none;endFill=0;" parent="1" source="36u0671AOfZQsiYe3x8z-6" target="3jUiUVgvmcOmY0SQq6iD-14" edge="1">
          <mxGeometry relative="1" as="geometry">
            <mxPoint x="1310" y="700" as="targetPoint" />
          </mxGeometry>
        </mxCell>
        <mxCell id="36u0671AOfZQsiYe3x8z-6" value="Lakcím" style="ellipse;whiteSpace=wrap;html=1;" parent="1" vertex="1">
          <mxGeometry x="1320" y="630" width="80" height="60" as="geometry" />
        </mxCell>
        <mxCell id="36u0671AOfZQsiYe3x8z-7" value="Utca" style="ellipse;whiteSpace=wrap;html=1;" parent="1" vertex="1">
          <mxGeometry x="1230" y="770" width="80" height="60" as="geometry" />
        </mxCell>
        <mxCell id="36u0671AOfZQsiYe3x8z-8" value="Házszám" style="ellipse;whiteSpace=wrap;html=1;" parent="1" vertex="1">
          <mxGeometry x="1320" y="770" width="80" height="60" as="geometry" />
        </mxCell>
        <mxCell id="36u0671AOfZQsiYe3x8z-9" style="rounded=0;orthogonalLoop=1;jettySize=auto;html=1;entryX=0.5;entryY=0;entryDx=0;entryDy=0;endArrow=none;endFill=0;exitX=0.5;exitY=1;exitDx=0;exitDy=0;" parent="1" source="36u0671AOfZQsiYe3x8z-6" target="36u0671AOfZQsiYe3x8z-7" edge="1">
          <mxGeometry relative="1" as="geometry">
            <mxPoint x="1099.5" y="646" as="sourcePoint" />
            <mxPoint x="1227.5" y="685" as="targetPoint" />
          </mxGeometry>
        </mxCell>
        <mxCell id="36u0671AOfZQsiYe3x8z-10" style="rounded=0;orthogonalLoop=1;jettySize=auto;html=1;entryX=0.5;entryY=0;entryDx=0;entryDy=0;endArrow=none;endFill=0;exitX=0.5;exitY=1;exitDx=0;exitDy=0;" parent="1" source="36u0671AOfZQsiYe3x8z-6" target="36u0671AOfZQsiYe3x8z-8" edge="1">
          <mxGeometry relative="1" as="geometry">
            <mxPoint x="1109.5" y="656" as="sourcePoint" />
            <mxPoint x="1237.5" y="695" as="targetPoint" />
          </mxGeometry>
        </mxCell>
        <mxCell id="36u0671AOfZQsiYe3x8z-12" style="rounded=0;orthogonalLoop=1;jettySize=auto;html=1;entryX=0;entryY=0.5;entryDx=0;entryDy=0;endArrow=none;endFill=0;exitX=0.5;exitY=0;exitDx=0;exitDy=0;" parent="1" source="3jUiUVgvmcOmY0SQq6iD-50" target="36u0671AOfZQsiYe3x8z-6" edge="1">
          <mxGeometry relative="1" as="geometry">
            <mxPoint x="1330" y="790" as="sourcePoint" />
            <mxPoint x="1197.5" y="655" as="targetPoint" />
          </mxGeometry>
        </mxCell>
        <mxCell id="2" value="Telefonszám" style="ellipse;shape=doubleEllipse;margin=3;whiteSpace=wrap;html=1;align=center;" parent="1" vertex="1">
          <mxGeometry x="190" y="630" width="80" height="60" as="geometry" />
        </mxCell>
        <mxCell id="t7DiXKhFXk8-TvQDCCYp-32" value="" style="rounded=0;orthogonalLoop=1;jettySize=auto;html=1;endArrow=none;endFill=0;exitX=0.5;exitY=0;exitDx=0;exitDy=0;entryX=0.5;entryY=1;entryDx=0;entryDy=0;" parent="1" source="4" target="3jUiUVgvmcOmY0SQq6iD-11" edge="1">
          <mxGeometry relative="1" as="geometry" />
        </mxCell>
        <mxCell id="4" value="Beosztás" style="ellipse;shape=doubleEllipse;margin=3;whiteSpace=wrap;html=1;align=center;" parent="1" vertex="1">
          <mxGeometry x="-690" y="630" width="80" height="60" as="geometry" />
        </mxCell>
        <mxCell id="6" value="Tünetek" style="ellipse;shape=doubleEllipse;margin=3;whiteSpace=wrap;html=1;align=center;" parent="1" vertex="1">
          <mxGeometry x="620" y="630" width="85" height="60" as="geometry" />
        </mxCell>
        <mxCell id="8" style="rounded=0;orthogonalLoop=1;jettySize=auto;html=1;exitX=0.5;exitY=0;exitDx=0;exitDy=0;endArrow=none;endFill=0;entryX=0.5;entryY=1;entryDx=0;entryDy=0;" parent="1" source="7" target="3jUiUVgvmcOmY0SQq6iD-14" edge="1">
          <mxGeometry relative="1" as="geometry">
            <mxPoint x="1310" y="700" as="targetPoint" />
          </mxGeometry>
        </mxCell>
        <mxCell id="7" value="Telefonszám" style="ellipse;shape=doubleEllipse;margin=3;whiteSpace=wrap;html=1;align=center;" parent="1" vertex="1">
          <mxGeometry x="1590" y="630" width="80" height="60" as="geometry" />
        </mxCell>
        <mxCell id="t7DiXKhFXk8-TvQDCCYp-8" style="rounded=0;orthogonalLoop=1;jettySize=auto;html=1;entryX=0.5;entryY=1;entryDx=0;entryDy=0;endArrow=none;endFill=0;exitX=0.5;exitY=0;exitDx=0;exitDy=0;" parent="1" source="oJl91GnHJdicE9mI5OMN-35" target="3jUiUVgvmcOmY0SQq6iD-11" edge="1">
          <mxGeometry relative="1" as="geometry" />
        </mxCell>
        <mxCell id="t7DiXKhFXk8-TvQDCCYp-30" style="rounded=0;orthogonalLoop=1;jettySize=auto;html=1;exitX=0.5;exitY=0;exitDx=0;exitDy=0;entryX=0.5;entryY=1;entryDx=0;entryDy=0;endArrow=none;endFill=0;" parent="1" source="oJl91GnHJdicE9mI5OMN-40" target="oJl91GnHJdicE9mI5OMN-39" edge="1">
          <mxGeometry relative="1" as="geometry">
            <mxPoint y="760" as="sourcePoint" />
            <mxPoint x="60" y="720" as="targetPoint" />
          </mxGeometry>
        </mxCell>
        <mxCell id="t7DiXKhFXk8-TvQDCCYp-31" style="rounded=0;orthogonalLoop=1;jettySize=auto;html=1;exitX=0.5;exitY=0;exitDx=0;exitDy=0;entryX=0.5;entryY=1;entryDx=0;entryDy=0;endArrow=none;endFill=0;" parent="1" source="oJl91GnHJdicE9mI5OMN-41" target="oJl91GnHJdicE9mI5OMN-39" edge="1">
          <mxGeometry relative="1" as="geometry">
            <mxPoint x="10" y="770" as="sourcePoint" />
            <mxPoint x="70" y="730" as="targetPoint" />
          </mxGeometry>
        </mxCell>
        <mxCell id="t7DiXKhFXk8-TvQDCCYp-33" style="rounded=0;orthogonalLoop=1;jettySize=auto;html=1;entryX=0.5;entryY=1;entryDx=0;entryDy=0;endArrow=none;endFill=0;exitX=0.5;exitY=0;exitDx=0;exitDy=0;" parent="1" source="oJl91GnHJdicE9mI5OMN-45" target="3jUiUVgvmcOmY0SQq6iD-11" edge="1">
          <mxGeometry relative="1" as="geometry">
            <mxPoint x="50" y="400" as="sourcePoint" />
            <mxPoint x="50" y="500" as="targetPoint" />
          </mxGeometry>
        </mxCell>
        <mxCell id="t7DiXKhFXk8-TvQDCCYp-34" style="rounded=0;orthogonalLoop=1;jettySize=auto;html=1;entryX=0.5;entryY=1;entryDx=0;entryDy=0;endArrow=none;endFill=0;exitX=0.5;exitY=0;exitDx=0;exitDy=0;" parent="1" source="oJl91GnHJdicE9mI5OMN-46" target="3jUiUVgvmcOmY0SQq6iD-11" edge="1">
          <mxGeometry relative="1" as="geometry">
            <mxPoint x="50" y="400" as="sourcePoint" />
            <mxPoint x="50" y="500" as="targetPoint" />
          </mxGeometry>
        </mxCell>
        <mxCell id="t7DiXKhFXk8-TvQDCCYp-35" style="rounded=0;orthogonalLoop=1;jettySize=auto;html=1;entryX=1;entryY=0.5;entryDx=0;entryDy=0;endArrow=none;endFill=0;exitX=0.5;exitY=0;exitDx=0;exitDy=0;" parent="1" source="3jUiUVgvmcOmY0SQq6iD-51" target="3jUiUVgvmcOmY0SQq6iD-11" edge="1">
          <mxGeometry relative="1" as="geometry">
            <mxPoint x="60" y="410" as="sourcePoint" />
            <mxPoint x="60" y="510" as="targetPoint" />
          </mxGeometry>
        </mxCell>
        <mxCell id="t7DiXKhFXk8-TvQDCCYp-36" style="rounded=0;orthogonalLoop=1;jettySize=auto;html=1;entryX=0.5;entryY=1;entryDx=0;entryDy=0;endArrow=none;endFill=0;exitX=0.5;exitY=0;exitDx=0;exitDy=0;" parent="1" source="oJl91GnHJdicE9mI5OMN-68" target="3jUiUVgvmcOmY0SQq6iD-11" edge="1">
          <mxGeometry relative="1" as="geometry">
            <mxPoint x="-440" y="390" as="sourcePoint" />
            <mxPoint x="-440" y="490" as="targetPoint" />
          </mxGeometry>
        </mxCell>
        <mxCell id="t7DiXKhFXk8-TvQDCCYp-37" value="Telefonszám" style="ellipse;shape=doubleEllipse;margin=3;whiteSpace=wrap;html=1;align=center;" parent="1" vertex="1">
          <mxGeometry x="-600" y="630" width="80" height="60" as="geometry" />
        </mxCell>
        <mxCell id="t7DiXKhFXk8-TvQDCCYp-38" style="rounded=0;orthogonalLoop=1;jettySize=auto;html=1;entryX=0.5;entryY=1;entryDx=0;entryDy=0;endArrow=none;endFill=0;exitX=0.5;exitY=0;exitDx=0;exitDy=0;" parent="1" source="t7DiXKhFXk8-TvQDCCYp-37" target="3jUiUVgvmcOmY0SQq6iD-11" edge="1">
          <mxGeometry relative="1" as="geometry">
            <mxPoint x="-50" y="485" as="sourcePoint" />
            <mxPoint x="-10" y="520" as="targetPoint" />
          </mxGeometry>
        </mxCell>
        <mxCell id="3jUiUVgvmcOmY0SQq6iD-11" value="Dolgozó" style="ellipse;shape=doubleEllipse;margin=3;whiteSpace=wrap;html=1;align=center;" parent="1" vertex="1">
          <mxGeometry x="-690" y="450" width="80" height="60" as="geometry" />
        </mxCell>
        <mxCell id="3jUiUVgvmcOmY0SQq6iD-12" value="Város" style="ellipse;shape=doubleEllipse;margin=3;whiteSpace=wrap;html=1;align=center;" parent="1" vertex="1">
          <mxGeometry x="-1380" y="450" width="80" height="60" as="geometry" />
        </mxCell>
        <mxCell id="3jUiUVgvmcOmY0SQq6iD-44" value="" style="edgeStyle=orthogonalEdgeStyle;rounded=0;orthogonalLoop=1;jettySize=auto;html=1;endArrow=none;endFill=0;" parent="1" source="3jUiUVgvmcOmY0SQq6iD-13" target="3jUiUVgvmcOmY0SQq6iD-19" edge="1">
          <mxGeometry relative="1" as="geometry" />
        </mxCell>
        <mxCell id="3jUiUVgvmcOmY0SQq6iD-13" value="Menhely" style="ellipse;shape=doubleEllipse;margin=3;whiteSpace=wrap;html=1;align=center;" parent="1" vertex="1">
          <mxGeometry x="10" y="450" width="80" height="60" as="geometry" />
        </mxCell>
        <mxCell id="3jUiUVgvmcOmY0SQq6iD-14" value="Örökbefogadó" style="ellipse;shape=doubleEllipse;margin=3;whiteSpace=wrap;html=1;align=center;" parent="1" vertex="1">
          <mxGeometry x="1405" y="450" width="90" height="60" as="geometry" />
        </mxCell>
        <mxCell id="3jUiUVgvmcOmY0SQq6iD-15" value="Állat" style="ellipse;shape=doubleEllipse;margin=3;whiteSpace=wrap;html=1;align=center;" parent="1" vertex="1">
          <mxGeometry x="879.9999999999999" y="450" width="80" height="60" as="geometry" />
        </mxCell>
        <mxCell id="3jUiUVgvmcOmY0SQq6iD-16" value="Betegség" style="ellipse;shape=doubleEllipse;margin=3;whiteSpace=wrap;html=1;align=center;" parent="1" vertex="1">
          <mxGeometry x="440" y="450" width="80" height="60" as="geometry" />
        </mxCell>
        <mxCell id="3jUiUVgvmcOmY0SQq6iD-115" style="rounded=0;orthogonalLoop=1;jettySize=auto;html=1;entryX=0.5;entryY=1;entryDx=0;entryDy=0;endArrow=none;endFill=0;exitX=0.5;exitY=0;exitDx=0;exitDy=0;" parent="1" source="3jUiUVgvmcOmY0SQq6iD-17" target="5dz5v8Tm8Q9roq_9ag4J-8" edge="1">
          <mxGeometry relative="1" as="geometry">
            <mxPoint x="50" y="70" as="targetPoint" />
          </mxGeometry>
        </mxCell>
        <mxCell id="3jUiUVgvmcOmY0SQq6iD-17" value="Városok" style="ellipse;whiteSpace=wrap;html=1;" parent="1" vertex="1">
          <mxGeometry x="-1380" y="350" width="80" height="60" as="geometry" />
        </mxCell>
        <mxCell id="3jUiUVgvmcOmY0SQq6iD-18" value="Dolgozók" style="ellipse;whiteSpace=wrap;html=1;" parent="1" vertex="1">
          <mxGeometry x="-690" y="350" width="80" height="60" as="geometry" />
        </mxCell>
        <mxCell id="3jUiUVgvmcOmY0SQq6iD-19" value="Menhelyek" style="ellipse;whiteSpace=wrap;html=1;" parent="1" vertex="1">
          <mxGeometry x="10" y="350" width="80" height="60" as="geometry" />
        </mxCell>
        <mxCell id="3jUiUVgvmcOmY0SQq6iD-20" value="Örökbefogadók" style="ellipse;whiteSpace=wrap;html=1;" parent="1" vertex="1">
          <mxGeometry x="1405" y="350" width="90" height="60" as="geometry" />
        </mxCell>
        <mxCell id="3jUiUVgvmcOmY0SQq6iD-21" value="Állatok" style="ellipse;whiteSpace=wrap;html=1;" parent="1" vertex="1">
          <mxGeometry x="879.9999999999999" y="350" width="80" height="60" as="geometry" />
        </mxCell>
        <mxCell id="3jUiUVgvmcOmY0SQq6iD-22" value="Betegségek" style="ellipse;whiteSpace=wrap;html=1;" parent="1" vertex="1">
          <mxGeometry x="440" y="350" width="80" height="60" as="geometry" />
        </mxCell>
        <mxCell id="3jUiUVgvmcOmY0SQq6iD-23" style="rounded=0;orthogonalLoop=1;jettySize=auto;html=1;exitX=0.5;exitY=1;exitDx=0;exitDy=0;entryX=0.5;entryY=0;entryDx=0;entryDy=0;endArrow=none;endFill=0;startArrow=none;startFill=0;" parent="1" source="3jUiUVgvmcOmY0SQq6iD-22" target="3jUiUVgvmcOmY0SQq6iD-16" edge="1">
          <mxGeometry relative="1" as="geometry">
            <mxPoint x="390" y="350" as="sourcePoint" />
            <mxPoint x="250" y="470" as="targetPoint" />
          </mxGeometry>
        </mxCell>
        <mxCell id="3jUiUVgvmcOmY0SQq6iD-24" style="rounded=0;orthogonalLoop=1;jettySize=auto;html=1;exitX=0.5;exitY=1;exitDx=0;exitDy=0;entryX=0.5;entryY=0;entryDx=0;entryDy=0;endArrow=none;endFill=0;" parent="1" source="3jUiUVgvmcOmY0SQq6iD-21" target="3jUiUVgvmcOmY0SQq6iD-15" edge="1">
          <mxGeometry relative="1" as="geometry">
            <mxPoint x="999.9999999999999" y="300" as="sourcePoint" />
            <mxPoint x="999.9999999999999" y="350" as="targetPoint" />
          </mxGeometry>
        </mxCell>
        <mxCell id="3jUiUVgvmcOmY0SQq6iD-25" style="rounded=0;orthogonalLoop=1;jettySize=auto;html=1;exitX=0.5;exitY=1;exitDx=0;exitDy=0;entryX=0.5;entryY=0;entryDx=0;entryDy=0;endArrow=none;endFill=0;" parent="1" source="3jUiUVgvmcOmY0SQq6iD-20" target="3jUiUVgvmcOmY0SQq6iD-14" edge="1">
          <mxGeometry relative="1" as="geometry">
            <mxPoint x="1590" y="370" as="sourcePoint" />
            <mxPoint x="1590" y="420" as="targetPoint" />
          </mxGeometry>
        </mxCell>
        <mxCell id="3jUiUVgvmcOmY0SQq6iD-40" style="rounded=0;orthogonalLoop=1;jettySize=auto;html=1;exitX=0.5;exitY=1;exitDx=0;exitDy=0;entryX=0.5;entryY=0;entryDx=0;entryDy=0;endArrow=none;endFill=0;" parent="1" source="3jUiUVgvmcOmY0SQq6iD-18" target="3jUiUVgvmcOmY0SQq6iD-11" edge="1">
          <mxGeometry relative="1" as="geometry">
            <mxPoint x="-520" y="400" as="sourcePoint" />
            <mxPoint x="-520" y="450" as="targetPoint" />
          </mxGeometry>
        </mxCell>
        <mxCell id="3jUiUVgvmcOmY0SQq6iD-41" style="rounded=0;orthogonalLoop=1;jettySize=auto;html=1;exitX=0.5;exitY=1;exitDx=0;exitDy=0;entryX=0.5;entryY=0;entryDx=0;entryDy=0;endArrow=none;endFill=0;" parent="1" source="3jUiUVgvmcOmY0SQq6iD-17" target="3jUiUVgvmcOmY0SQq6iD-12" edge="1">
          <mxGeometry relative="1" as="geometry">
            <mxPoint x="-1420" y="400" as="sourcePoint" />
            <mxPoint x="-1420" y="460" as="targetPoint" />
          </mxGeometry>
        </mxCell>
        <mxCell id="3jUiUVgvmcOmY0SQq6iD-43" value="" style="rounded=0;whiteSpace=wrap;html=1;" parent="1" vertex="1">
          <mxGeometry x="-1450" y="730" width="40" height="80" as="geometry" />
        </mxCell>
        <mxCell id="3jUiUVgvmcOmY0SQq6iD-46" value="&lt;u&gt;Irányítószám&lt;/u&gt;" style="rhombus;whiteSpace=wrap;html=1;" parent="1" vertex="1">
          <mxGeometry x="-1560" y="520" width="80" height="80" as="geometry" />
        </mxCell>
        <mxCell id="3jUiUVgvmcOmY0SQq6iD-107" style="edgeStyle=orthogonalEdgeStyle;rounded=0;orthogonalLoop=1;jettySize=auto;html=1;entryX=0;entryY=1;entryDx=0;entryDy=0;dashed=1;dashPattern=1 1;" parent="1" source="3jUiUVgvmcOmY0SQq6iD-48" target="3jUiUVgvmcOmY0SQq6iD-46" edge="1">
          <mxGeometry relative="1" as="geometry">
            <Array as="points">
              <mxPoint x="-1090" y="880" />
              <mxPoint x="-1610" y="880" />
              <mxPoint x="-1610" y="580" />
            </Array>
          </mxGeometry>
        </mxCell>
        <mxCell id="3jUiUVgvmcOmY0SQq6iD-48" value="&lt;u&gt;Irányítószám&lt;/u&gt;" style="rhombus;whiteSpace=wrap;html=1;" parent="1" vertex="1">
          <mxGeometry x="-1130" y="680" width="80" height="80" as="geometry" />
        </mxCell>
        <mxCell id="3jUiUVgvmcOmY0SQq6iD-49" value="&lt;u&gt;Irányítószám&lt;/u&gt;" style="rhombus;whiteSpace=wrap;html=1;" parent="1" vertex="1">
          <mxGeometry x="-250" y="680" width="80" height="80" as="geometry" />
        </mxCell>
        <mxCell id="3jUiUVgvmcOmY0SQq6iD-50" value="&lt;u&gt;Irányítószám&lt;/u&gt;" style="rhombus;whiteSpace=wrap;html=1;" parent="1" vertex="1">
          <mxGeometry x="1150" y="680" width="80" height="80" as="geometry" />
        </mxCell>
        <mxCell id="3jUiUVgvmcOmY0SQq6iD-51" value="&lt;u&gt;Személyi szám&lt;/u&gt;" style="rhombus;whiteSpace=wrap;html=1;" parent="1" vertex="1">
          <mxGeometry x="-420" y="520" width="80" height="80" as="geometry" />
        </mxCell>
        <mxCell id="3jUiUVgvmcOmY0SQq6iD-52" value="&lt;u&gt;Személyi szám&lt;/u&gt;" style="rhombus;whiteSpace=wrap;html=1;" parent="1" vertex="1">
          <mxGeometry x="1590" y="520" width="80" height="80" as="geometry" />
        </mxCell>
        <mxCell id="3jUiUVgvmcOmY0SQq6iD-53" value="&lt;div&gt;&lt;u&gt;Nyilántartási&lt;/u&gt;&lt;/div&gt;&lt;div&gt;&lt;u&gt;ayonosító&lt;/u&gt;&lt;/div&gt;" style="rhombus;whiteSpace=wrap;html=1;" parent="1" vertex="1">
          <mxGeometry x="185" y="515" width="90" height="90" as="geometry" />
        </mxCell>
        <mxCell id="3jUiUVgvmcOmY0SQq6iD-54" value="&lt;u&gt;Latin név&lt;/u&gt;" style="rhombus;whiteSpace=wrap;html=1;" parent="1" vertex="1">
          <mxGeometry x="622.5" y="520" width="80" height="80" as="geometry" />
        </mxCell>
        <mxCell id="3jUiUVgvmcOmY0SQq6iD-56" value="&lt;u&gt;Azonosító &lt;br&gt;kód&lt;/u&gt;" style="rhombus;whiteSpace=wrap;html=1;" parent="1" vertex="1">
          <mxGeometry x="1040" y="520" width="80" height="80" as="geometry" />
        </mxCell>
        <mxCell id="3jUiUVgvmcOmY0SQq6iD-57" value="" style="rounded=0;whiteSpace=wrap;html=1;" parent="1" vertex="1">
          <mxGeometry x="-1360" y="730" width="40" height="80" as="geometry" />
        </mxCell>
        <mxCell id="3jUiUVgvmcOmY0SQq6iD-58" value="" style="rounded=0;whiteSpace=wrap;html=1;" parent="1" vertex="1">
          <mxGeometry x="-1270" y="730" width="40" height="80" as="geometry" />
        </mxCell>
        <mxCell id="3jUiUVgvmcOmY0SQq6iD-59" value="" style="endArrow=none;html=1;rounded=0;entryX=0.5;entryY=0;entryDx=0;entryDy=0;exitX=0.5;exitY=1;exitDx=0;exitDy=0;" parent="1" source="oJl91GnHJdicE9mI5OMN-9" target="3jUiUVgvmcOmY0SQq6iD-57" edge="1">
          <mxGeometry width="50" height="50" relative="1" as="geometry">
            <mxPoint x="-1330" y="590" as="sourcePoint" />
            <mxPoint x="-1330" y="640" as="targetPoint" />
          </mxGeometry>
        </mxCell>
        <mxCell id="3jUiUVgvmcOmY0SQq6iD-60" value="" style="endArrow=none;html=1;rounded=0;entryX=0.5;entryY=0;entryDx=0;entryDy=0;exitX=0.5;exitY=1;exitDx=0;exitDy=0;" parent="1" source="oJl91GnHJdicE9mI5OMN-10" target="3jUiUVgvmcOmY0SQq6iD-58" edge="1">
          <mxGeometry width="50" height="50" relative="1" as="geometry">
            <mxPoint x="-1320" y="600" as="sourcePoint" />
            <mxPoint x="-1320" y="650" as="targetPoint" />
          </mxGeometry>
        </mxCell>
        <mxCell id="3jUiUVgvmcOmY0SQq6iD-61" value="" style="endArrow=none;html=1;rounded=0;entryX=0.5;entryY=0;entryDx=0;entryDy=0;exitX=0.5;exitY=1;exitDx=0;exitDy=0;" parent="1" source="oJl91GnHJdicE9mI5OMN-8" target="3jUiUVgvmcOmY0SQq6iD-43" edge="1">
          <mxGeometry width="50" height="50" relative="1" as="geometry">
            <mxPoint x="-1310" y="610" as="sourcePoint" />
            <mxPoint x="-1310" y="660" as="targetPoint" />
          </mxGeometry>
        </mxCell>
        <mxCell id="3jUiUVgvmcOmY0SQq6iD-62" value="" style="rounded=0;whiteSpace=wrap;html=1;" parent="1" vertex="1">
          <mxGeometry x="-1030" y="870" width="40" height="80" as="geometry" />
        </mxCell>
        <mxCell id="3jUiUVgvmcOmY0SQq6iD-63" value="" style="endArrow=none;html=1;rounded=0;entryX=0.5;entryY=0;entryDx=0;entryDy=0;exitX=0.5;exitY=1;exitDx=0;exitDy=0;" parent="1" source="oJl91GnHJdicE9mI5OMN-62" target="3jUiUVgvmcOmY0SQq6iD-62" edge="1">
          <mxGeometry width="50" height="50" relative="1" as="geometry">
            <mxPoint x="-970" y="830" as="sourcePoint" />
            <mxPoint x="-1040" y="790" as="targetPoint" />
          </mxGeometry>
        </mxCell>
        <mxCell id="3jUiUVgvmcOmY0SQq6iD-64" value="" style="rounded=0;whiteSpace=wrap;html=1;" parent="1" vertex="1">
          <mxGeometry x="-940" y="870" width="40" height="80" as="geometry" />
        </mxCell>
        <mxCell id="3jUiUVgvmcOmY0SQq6iD-65" value="" style="endArrow=none;html=1;rounded=0;entryX=0.5;entryY=0;entryDx=0;entryDy=0;exitX=0.5;exitY=1;exitDx=0;exitDy=0;" parent="1" source="oJl91GnHJdicE9mI5OMN-63" target="3jUiUVgvmcOmY0SQq6iD-64" edge="1">
          <mxGeometry width="50" height="50" relative="1" as="geometry">
            <mxPoint x="-870" y="820" as="sourcePoint" />
            <mxPoint x="-940" y="790" as="targetPoint" />
          </mxGeometry>
        </mxCell>
        <mxCell id="3jUiUVgvmcOmY0SQq6iD-66" value="" style="rounded=0;whiteSpace=wrap;html=1;" parent="1" vertex="1">
          <mxGeometry x="-850" y="730" width="40" height="80" as="geometry" />
        </mxCell>
        <mxCell id="3jUiUVgvmcOmY0SQq6iD-67" value="" style="endArrow=none;html=1;rounded=0;entryX=0.5;entryY=0;entryDx=0;entryDy=0;exitX=0.5;exitY=1;exitDx=0;exitDy=0;" parent="1" source="oJl91GnHJdicE9mI5OMN-35" target="3jUiUVgvmcOmY0SQq6iD-66" edge="1">
          <mxGeometry width="50" height="50" relative="1" as="geometry">
            <mxPoint x="-840" y="680" as="sourcePoint" />
            <mxPoint x="-900" y="661" as="targetPoint" />
          </mxGeometry>
        </mxCell>
        <mxCell id="3jUiUVgvmcOmY0SQq6iD-69" value="" style="rounded=0;whiteSpace=wrap;html=1;" parent="1" vertex="1">
          <mxGeometry x="-760" y="730" width="40" height="80" as="geometry" />
        </mxCell>
        <mxCell id="3jUiUVgvmcOmY0SQq6iD-70" value="" style="endArrow=none;html=1;rounded=0;entryX=0.5;entryY=0;entryDx=0;entryDy=0;exitX=0.5;exitY=1;exitDx=0;exitDy=0;" parent="1" source="oJl91GnHJdicE9mI5OMN-45" target="3jUiUVgvmcOmY0SQq6iD-69" edge="1">
          <mxGeometry width="50" height="50" relative="1" as="geometry">
            <mxPoint x="-740" y="691.5" as="sourcePoint" />
            <mxPoint x="-810" y="661.5" as="targetPoint" />
          </mxGeometry>
        </mxCell>
        <mxCell id="3jUiUVgvmcOmY0SQq6iD-71" value="" style="rounded=0;whiteSpace=wrap;html=1;" parent="1" vertex="1">
          <mxGeometry x="-670" y="730" width="40" height="80" as="geometry" />
        </mxCell>
        <mxCell id="3jUiUVgvmcOmY0SQq6iD-72" value="" style="endArrow=none;html=1;rounded=0;entryX=0.5;entryY=0;entryDx=0;entryDy=0;exitX=0.5;exitY=1;exitDx=0;exitDy=0;" parent="1" source="4" target="3jUiUVgvmcOmY0SQq6iD-71" edge="1">
          <mxGeometry width="50" height="50" relative="1" as="geometry">
            <mxPoint x="-650" y="691.5" as="sourcePoint" />
            <mxPoint x="-720" y="661.5" as="targetPoint" />
          </mxGeometry>
        </mxCell>
        <mxCell id="3jUiUVgvmcOmY0SQq6iD-73" value="" style="rounded=0;whiteSpace=wrap;html=1;" parent="1" vertex="1">
          <mxGeometry x="-580" y="730" width="40" height="80" as="geometry" />
        </mxCell>
        <mxCell id="3jUiUVgvmcOmY0SQq6iD-74" value="" style="endArrow=none;html=1;rounded=0;entryX=0.5;entryY=0;entryDx=0;entryDy=0;exitX=0.5;exitY=1;exitDx=0;exitDy=0;" parent="1" source="t7DiXKhFXk8-TvQDCCYp-37" target="3jUiUVgvmcOmY0SQq6iD-73" edge="1">
          <mxGeometry width="50" height="50" relative="1" as="geometry">
            <mxPoint x="-560" y="692.5" as="sourcePoint" />
            <mxPoint x="-630" y="661" as="targetPoint" />
          </mxGeometry>
        </mxCell>
        <mxCell id="3jUiUVgvmcOmY0SQq6iD-75" value="" style="rounded=0;whiteSpace=wrap;html=1;" parent="1" vertex="1">
          <mxGeometry x="-490" y="730" width="40" height="80" as="geometry" />
        </mxCell>
        <mxCell id="3jUiUVgvmcOmY0SQq6iD-76" value="" style="endArrow=none;html=1;rounded=0;entryX=0.5;entryY=0;entryDx=0;entryDy=0;exitX=0.5;exitY=1;exitDx=0;exitDy=0;" parent="1" source="oJl91GnHJdicE9mI5OMN-46" target="3jUiUVgvmcOmY0SQq6iD-75" edge="1">
          <mxGeometry width="50" height="50" relative="1" as="geometry">
            <mxPoint x="-470" y="691" as="sourcePoint" />
            <mxPoint x="-540" y="661" as="targetPoint" />
          </mxGeometry>
        </mxCell>
        <mxCell id="3jUiUVgvmcOmY0SQq6iD-77" value="" style="rounded=0;whiteSpace=wrap;html=1;" parent="1" vertex="1">
          <mxGeometry x="-400" y="730" width="40" height="80" as="geometry" />
        </mxCell>
        <mxCell id="3jUiUVgvmcOmY0SQq6iD-81" value="" style="rounded=0;orthogonalLoop=1;jettySize=auto;html=1;endArrow=none;endFill=0;exitX=0.5;exitY=1;exitDx=0;exitDy=0;" parent="1" source="oJl91GnHJdicE9mI5OMN-43" target="3jUiUVgvmcOmY0SQq6iD-82" edge="1">
          <mxGeometry relative="1" as="geometry">
            <mxPoint x="50" y="690" as="sourcePoint" />
          </mxGeometry>
        </mxCell>
        <mxCell id="3jUiUVgvmcOmY0SQq6iD-82" value="" style="rounded=0;whiteSpace=wrap;html=1;" parent="1" vertex="1">
          <mxGeometry x="30" y="730" width="40" height="80" as="geometry" />
        </mxCell>
        <mxCell id="3jUiUVgvmcOmY0SQq6iD-83" value="" style="rounded=0;orthogonalLoop=1;jettySize=auto;html=1;endArrow=none;endFill=0;exitX=0.5;exitY=1;exitDx=0;exitDy=0;" parent="1" source="oJl91GnHJdicE9mI5OMN-42" target="3jUiUVgvmcOmY0SQq6iD-84" edge="1">
          <mxGeometry relative="1" as="geometry">
            <mxPoint x="60" y="700" as="sourcePoint" />
          </mxGeometry>
        </mxCell>
        <mxCell id="3jUiUVgvmcOmY0SQq6iD-84" value="" style="rounded=0;whiteSpace=wrap;html=1;" parent="1" vertex="1">
          <mxGeometry x="120" y="730" width="40" height="80" as="geometry" />
        </mxCell>
        <mxCell id="3jUiUVgvmcOmY0SQq6iD-85" value="" style="rounded=0;orthogonalLoop=1;jettySize=auto;html=1;endArrow=none;endFill=0;exitX=0.5;exitY=1;exitDx=0;exitDy=0;" parent="1" source="2" target="3jUiUVgvmcOmY0SQq6iD-86" edge="1">
          <mxGeometry relative="1" as="geometry">
            <mxPoint x="230" y="690" as="sourcePoint" />
          </mxGeometry>
        </mxCell>
        <mxCell id="3jUiUVgvmcOmY0SQq6iD-86" value="" style="rounded=0;whiteSpace=wrap;html=1;" parent="1" vertex="1">
          <mxGeometry x="210" y="730" width="40" height="80" as="geometry" />
        </mxCell>
        <mxCell id="3jUiUVgvmcOmY0SQq6iD-87" value="" style="rounded=0;orthogonalLoop=1;jettySize=auto;html=1;endArrow=none;endFill=0;exitX=0.5;exitY=1;exitDx=0;exitDy=0;" parent="1" source="oJl91GnHJdicE9mI5OMN-41" target="3jUiUVgvmcOmY0SQq6iD-88" edge="1">
          <mxGeometry relative="1" as="geometry">
            <mxPoint x="-40" y="830" as="sourcePoint" />
          </mxGeometry>
        </mxCell>
        <mxCell id="3jUiUVgvmcOmY0SQq6iD-88" value="" style="rounded=0;whiteSpace=wrap;html=1;" parent="1" vertex="1">
          <mxGeometry x="-60" y="870" width="40" height="80" as="geometry" />
        </mxCell>
        <mxCell id="3jUiUVgvmcOmY0SQq6iD-89" value="" style="rounded=0;orthogonalLoop=1;jettySize=auto;html=1;endArrow=none;endFill=0;exitX=0.5;exitY=1;exitDx=0;exitDy=0;" parent="1" source="oJl91GnHJdicE9mI5OMN-40" target="3jUiUVgvmcOmY0SQq6iD-90" edge="1">
          <mxGeometry relative="1" as="geometry">
            <mxPoint x="-130" y="830" as="sourcePoint" />
          </mxGeometry>
        </mxCell>
        <mxCell id="3jUiUVgvmcOmY0SQq6iD-90" value="" style="rounded=0;whiteSpace=wrap;html=1;" parent="1" vertex="1">
          <mxGeometry x="-150" y="870" width="40" height="80" as="geometry" />
        </mxCell>
        <mxCell id="3jUiUVgvmcOmY0SQq6iD-91" value="" style="rounded=0;orthogonalLoop=1;jettySize=auto;html=1;endArrow=none;endFill=0;exitX=0.5;exitY=1;exitDx=0;exitDy=0;" parent="1" source="oJl91GnHJdicE9mI5OMN-80" target="3jUiUVgvmcOmY0SQq6iD-92" edge="1">
          <mxGeometry relative="1" as="geometry">
            <mxPoint x="390" y="690" as="sourcePoint" />
          </mxGeometry>
        </mxCell>
        <mxCell id="3jUiUVgvmcOmY0SQq6iD-92" value="" style="rounded=0;whiteSpace=wrap;html=1;" parent="1" vertex="1">
          <mxGeometry x="370" y="730" width="40" height="80" as="geometry" />
        </mxCell>
        <mxCell id="3jUiUVgvmcOmY0SQq6iD-93" value="" style="rounded=0;orthogonalLoop=1;jettySize=auto;html=1;endArrow=none;endFill=0;exitX=0.5;exitY=1;exitDx=0;exitDy=0;" parent="1" source="oJl91GnHJdicE9mI5OMN-79" target="3jUiUVgvmcOmY0SQq6iD-94" edge="1">
          <mxGeometry relative="1" as="geometry">
            <mxPoint x="480" y="690" as="sourcePoint" />
          </mxGeometry>
        </mxCell>
        <mxCell id="3jUiUVgvmcOmY0SQq6iD-94" value="" style="rounded=0;whiteSpace=wrap;html=1;" parent="1" vertex="1">
          <mxGeometry x="460" y="730" width="40" height="80" as="geometry" />
        </mxCell>
        <mxCell id="3jUiUVgvmcOmY0SQq6iD-95" value="" style="rounded=0;orthogonalLoop=1;jettySize=auto;html=1;endArrow=none;endFill=0;exitX=0.5;exitY=1;exitDx=0;exitDy=0;" parent="1" source="oJl91GnHJdicE9mI5OMN-81" target="3jUiUVgvmcOmY0SQq6iD-96" edge="1">
          <mxGeometry relative="1" as="geometry">
            <mxPoint x="570" y="690" as="sourcePoint" />
          </mxGeometry>
        </mxCell>
        <mxCell id="3jUiUVgvmcOmY0SQq6iD-96" value="" style="rounded=0;whiteSpace=wrap;html=1;" parent="1" vertex="1">
          <mxGeometry x="550" y="730" width="40" height="80" as="geometry" />
        </mxCell>
        <mxCell id="3jUiUVgvmcOmY0SQq6iD-97" value="" style="rounded=0;orthogonalLoop=1;jettySize=auto;html=1;endArrow=none;endFill=0;exitX=0.5;exitY=1;exitDx=0;exitDy=0;" parent="1" source="oJl91GnHJdicE9mI5OMN-72" target="3jUiUVgvmcOmY0SQq6iD-98" edge="1">
          <mxGeometry relative="1" as="geometry">
            <mxPoint x="829.9999999999999" y="690" as="sourcePoint" />
          </mxGeometry>
        </mxCell>
        <mxCell id="3jUiUVgvmcOmY0SQq6iD-98" value="" style="rounded=0;whiteSpace=wrap;html=1;" parent="1" vertex="1">
          <mxGeometry x="809.9999999999999" y="730" width="40" height="80" as="geometry" />
        </mxCell>
        <mxCell id="3jUiUVgvmcOmY0SQq6iD-99" value="" style="rounded=0;orthogonalLoop=1;jettySize=auto;html=1;endArrow=none;endFill=0;exitX=0.5;exitY=1;exitDx=0;exitDy=0;" parent="1" source="oJl91GnHJdicE9mI5OMN-73" target="3jUiUVgvmcOmY0SQq6iD-100" edge="1">
          <mxGeometry relative="1" as="geometry">
            <mxPoint x="919.9999999999999" y="690" as="sourcePoint" />
          </mxGeometry>
        </mxCell>
        <mxCell id="3jUiUVgvmcOmY0SQq6iD-100" value="" style="rounded=0;whiteSpace=wrap;html=1;" parent="1" vertex="1">
          <mxGeometry x="899.9999999999999" y="730" width="40" height="80" as="geometry" />
        </mxCell>
        <mxCell id="3jUiUVgvmcOmY0SQq6iD-101" value="" style="rounded=0;orthogonalLoop=1;jettySize=auto;html=1;endArrow=none;endFill=0;exitX=0.5;exitY=1;exitDx=0;exitDy=0;" parent="1" source="oJl91GnHJdicE9mI5OMN-71" target="3jUiUVgvmcOmY0SQq6iD-102" edge="1">
          <mxGeometry relative="1" as="geometry">
            <mxPoint x="1009.9999999999999" y="690" as="sourcePoint" />
          </mxGeometry>
        </mxCell>
        <mxCell id="3jUiUVgvmcOmY0SQq6iD-102" value="" style="rounded=0;whiteSpace=wrap;html=1;" parent="1" vertex="1">
          <mxGeometry x="989.9999999999999" y="730" width="40" height="80" as="geometry" />
        </mxCell>
        <mxCell id="3jUiUVgvmcOmY0SQq6iD-103" value="" style="rounded=0;orthogonalLoop=1;jettySize=auto;html=1;endArrow=none;endFill=0;exitX=0.5;exitY=1;exitDx=0;exitDy=0;" parent="1" source="6" target="3jUiUVgvmcOmY0SQq6iD-104" edge="1">
          <mxGeometry relative="1" as="geometry">
            <mxPoint x="652.5" y="680" as="sourcePoint" />
          </mxGeometry>
        </mxCell>
        <mxCell id="3jUiUVgvmcOmY0SQq6iD-104" value="" style="rounded=0;whiteSpace=wrap;html=1;" parent="1" vertex="1">
          <mxGeometry x="642.5" y="730" width="40" height="80" as="geometry" />
        </mxCell>
        <mxCell id="3jUiUVgvmcOmY0SQq6iD-108" style="edgeStyle=orthogonalEdgeStyle;rounded=0;orthogonalLoop=1;jettySize=auto;html=1;entryX=0;entryY=0.5;entryDx=0;entryDy=0;dashed=1;dashPattern=1 1;exitX=0.5;exitY=1;exitDx=0;exitDy=0;" parent="1" source="3jUiUVgvmcOmY0SQq6iD-49" target="3jUiUVgvmcOmY0SQq6iD-46" edge="1">
          <mxGeometry relative="1" as="geometry">
            <mxPoint x="-1080" y="670" as="sourcePoint" />
            <mxPoint x="-1520" y="510" as="targetPoint" />
            <Array as="points">
              <mxPoint x="-210" y="1000" />
              <mxPoint x="-1650" y="1000" />
              <mxPoint x="-1650" y="560" />
            </Array>
          </mxGeometry>
        </mxCell>
        <mxCell id="3jUiUVgvmcOmY0SQq6iD-109" style="edgeStyle=orthogonalEdgeStyle;rounded=0;orthogonalLoop=1;jettySize=auto;html=1;entryX=0;entryY=0;entryDx=0;entryDy=0;dashed=1;dashPattern=1 1;exitX=0.5;exitY=1;exitDx=0;exitDy=0;" parent="1" source="3jUiUVgvmcOmY0SQq6iD-50" target="3jUiUVgvmcOmY0SQq6iD-46" edge="1">
          <mxGeometry relative="1" as="geometry">
            <mxPoint x="-1070" y="680" as="sourcePoint" />
            <mxPoint x="-1510" y="520" as="targetPoint" />
            <Array as="points">
              <mxPoint x="1190" y="1040" />
              <mxPoint x="-1690" y="1040" />
              <mxPoint x="-1690" y="540" />
            </Array>
          </mxGeometry>
        </mxCell>
        <mxCell id="3jUiUVgvmcOmY0SQq6iD-116" style="rounded=0;orthogonalLoop=1;jettySize=auto;html=1;entryX=0.5;entryY=1;entryDx=0;entryDy=0;endArrow=none;endFill=0;exitX=0.5;exitY=0;exitDx=0;exitDy=0;" parent="1" source="3jUiUVgvmcOmY0SQq6iD-18" target="5dz5v8Tm8Q9roq_9ag4J-8" edge="1">
          <mxGeometry relative="1" as="geometry">
            <mxPoint x="-1292" y="380" as="sourcePoint" />
            <mxPoint x="50" y="70" as="targetPoint" />
          </mxGeometry>
        </mxCell>
        <mxCell id="3jUiUVgvmcOmY0SQq6iD-117" style="rounded=0;orthogonalLoop=1;jettySize=auto;html=1;entryX=0.5;entryY=1;entryDx=0;entryDy=0;endArrow=none;endFill=0;exitX=0.5;exitY=0;exitDx=0;exitDy=0;" parent="1" source="3jUiUVgvmcOmY0SQq6iD-19" target="5dz5v8Tm8Q9roq_9ag4J-8" edge="1">
          <mxGeometry relative="1" as="geometry">
            <mxPoint x="-640" y="360" as="sourcePoint" />
            <mxPoint x="50" y="70" as="targetPoint" />
          </mxGeometry>
        </mxCell>
        <mxCell id="3jUiUVgvmcOmY0SQq6iD-118" style="rounded=0;orthogonalLoop=1;jettySize=auto;html=1;entryX=0.5;entryY=1;entryDx=0;entryDy=0;endArrow=none;endFill=0;exitX=0.5;exitY=0;exitDx=0;exitDy=0;" parent="1" source="3jUiUVgvmcOmY0SQq6iD-22" target="5dz5v8Tm8Q9roq_9ag4J-8" edge="1">
          <mxGeometry relative="1" as="geometry">
            <mxPoint x="-630" y="370" as="sourcePoint" />
            <mxPoint x="50" y="70" as="targetPoint" />
          </mxGeometry>
        </mxCell>
        <mxCell id="3jUiUVgvmcOmY0SQq6iD-119" style="rounded=0;orthogonalLoop=1;jettySize=auto;html=1;entryX=0.5;entryY=1;entryDx=0;entryDy=0;endArrow=none;endFill=0;exitX=0.5;exitY=0;exitDx=0;exitDy=0;" parent="1" source="3jUiUVgvmcOmY0SQq6iD-21" target="5dz5v8Tm8Q9roq_9ag4J-8" edge="1">
          <mxGeometry relative="1" as="geometry">
            <mxPoint x="-620" y="380" as="sourcePoint" />
            <mxPoint x="50" y="70" as="targetPoint" />
          </mxGeometry>
        </mxCell>
        <mxCell id="3jUiUVgvmcOmY0SQq6iD-120" style="rounded=0;orthogonalLoop=1;jettySize=auto;html=1;entryX=0.5;entryY=1;entryDx=0;entryDy=0;endArrow=none;endFill=0;exitX=0.5;exitY=0;exitDx=0;exitDy=0;" parent="1" source="3jUiUVgvmcOmY0SQq6iD-20" target="5dz5v8Tm8Q9roq_9ag4J-8" edge="1">
          <mxGeometry relative="1" as="geometry">
            <mxPoint x="1498.5714285714284" y="320" as="sourcePoint" />
            <mxPoint x="50" y="70" as="targetPoint" />
          </mxGeometry>
        </mxCell>
        <mxCell id="3jUiUVgvmcOmY0SQq6iD-121" value="" style="rounded=0;orthogonalLoop=1;jettySize=auto;html=1;endArrow=none;endFill=0;exitX=0.5;exitY=1;exitDx=0;exitDy=0;" parent="1" source="36u0671AOfZQsiYe3x8z-8" target="3jUiUVgvmcOmY0SQq6iD-122" edge="1">
          <mxGeometry relative="1" as="geometry">
            <mxPoint x="1360" y="830" as="sourcePoint" />
          </mxGeometry>
        </mxCell>
        <mxCell id="3jUiUVgvmcOmY0SQq6iD-122" value="" style="rounded=0;whiteSpace=wrap;html=1;" parent="1" vertex="1">
          <mxGeometry x="1340" y="870" width="40" height="80" as="geometry" />
        </mxCell>
        <mxCell id="3jUiUVgvmcOmY0SQq6iD-123" value="" style="rounded=0;orthogonalLoop=1;jettySize=auto;html=1;endArrow=none;endFill=0;exitX=0.5;exitY=1;exitDx=0;exitDy=0;" parent="1" source="36u0671AOfZQsiYe3x8z-7" target="3jUiUVgvmcOmY0SQq6iD-124" edge="1">
          <mxGeometry relative="1" as="geometry">
            <mxPoint x="1270" y="830" as="sourcePoint" />
          </mxGeometry>
        </mxCell>
        <mxCell id="3jUiUVgvmcOmY0SQq6iD-124" value="" style="rounded=0;whiteSpace=wrap;html=1;" parent="1" vertex="1">
          <mxGeometry x="1250" y="870" width="40" height="80" as="geometry" />
        </mxCell>
        <mxCell id="3jUiUVgvmcOmY0SQq6iD-125" value="" style="rounded=0;orthogonalLoop=1;jettySize=auto;html=1;endArrow=none;endFill=0;exitX=0.5;exitY=1;exitDx=0;exitDy=0;" parent="1" target="3jUiUVgvmcOmY0SQq6iD-126" edge="1">
          <mxGeometry relative="1" as="geometry">
            <mxPoint x="1450" y="690" as="sourcePoint" />
          </mxGeometry>
        </mxCell>
        <mxCell id="3jUiUVgvmcOmY0SQq6iD-126" value="" style="rounded=0;whiteSpace=wrap;html=1;" parent="1" vertex="1">
          <mxGeometry x="1430" y="730" width="40" height="80" as="geometry" />
        </mxCell>
        <mxCell id="3jUiUVgvmcOmY0SQq6iD-127" value="" style="rounded=0;orthogonalLoop=1;jettySize=auto;html=1;endArrow=none;endFill=0;exitX=0.5;exitY=1;exitDx=0;exitDy=0;" parent="1" target="3jUiUVgvmcOmY0SQq6iD-128" edge="1">
          <mxGeometry relative="1" as="geometry">
            <mxPoint x="1540" y="690" as="sourcePoint" />
          </mxGeometry>
        </mxCell>
        <mxCell id="3jUiUVgvmcOmY0SQq6iD-128" value="" style="rounded=0;whiteSpace=wrap;html=1;" parent="1" vertex="1">
          <mxGeometry x="1520" y="730" width="40" height="80" as="geometry" />
        </mxCell>
        <mxCell id="3jUiUVgvmcOmY0SQq6iD-129" value="" style="rounded=0;orthogonalLoop=1;jettySize=auto;html=1;endArrow=none;endFill=0;exitX=0.5;exitY=1;exitDx=0;exitDy=0;" parent="1" target="3jUiUVgvmcOmY0SQq6iD-130" edge="1">
          <mxGeometry relative="1" as="geometry">
            <mxPoint x="1630" y="690" as="sourcePoint" />
          </mxGeometry>
        </mxCell>
        <mxCell id="3jUiUVgvmcOmY0SQq6iD-130" value="" style="rounded=0;whiteSpace=wrap;html=1;" parent="1" vertex="1">
          <mxGeometry x="1610" y="730" width="40" height="80" as="geometry" />
        </mxCell>
        <mxCell id="5dz5v8Tm8Q9roq_9ag4J-8" value="Állatmenhelyek" style="ellipse;whiteSpace=wrap;html=1;" vertex="1" parent="1">
          <mxGeometry x="-10" width="120" height="80" as="geometry" />
        </mxCell>
      </root>
    </mxGraphModel>
  </diagram>
</mxfile>
